<svg xmlns="http://www.w3.org/2000/svg" viewBox="0 0 32 32">
  <title>Achecked</title>
  <g id="Layer_2" data-name="Layer 2">
    <g id="Layer_1-2" data-name="Layer 1">
      <g>
        <path d="M28.6,6.17c-.68.73-1.36,1.49-2.05,2.26A13,13,0,1,1,24.32,6c.85-.62,1.68-1.21,2.51-1.78A16,16,0,1,0,28.6,6.17Z"/>
        <path d="M3.66,17.69a6.91,6.91,0,0,1,.83-.46A1.61,1.61,0,0,1,5.21,17a1.35,1.35,0,0,1,.56.17,25.41,25.41,0,0,1,3.59,4.45c1.06,1.53,2.18,3.55,3.55,5.62A95,95,0,0,1,31.77,2,62.29,62.29,0,0,0,11.82,19.69a24.79,24.79,0,0,0-2.56-3c-.85-.81-2.49-2.17-3.91-1.4a2.82,2.82,0,0,0-.91.91A6.91,6.91,0,0,0,3.66,17.69Z" fill="#cc1919"/>
      </g>
    </g>
  </g>
</svg>
