<svg xmlns="http://www.w3.org/2000/svg" viewBox="0 0 32 32">
  <title>sqcheck4-night</title>
  <g id="Layer_2" data-name="Layer 2">
    <g id="Layer_7" data-name="Layer 7">
      <rect width="32" height="32" fill="#606060" opacity="0.01"/>
      <path d="M21,9a1,1,0,0,1,1,1V26a1,1,0,0,1-1,1H5a1,1,0,0,1-1-1V10A1,1,0,0,1,5,9H21m0-4H5a5,5,0,0,0-5,5V26a5,5,0,0,0,5,5H21a5,5,0,0,0,5-5V10a5,5,0,0,0-5-5Z" fill="#1a1a1a"/>
      <path d="M32,1.63A72,72,0,0,0,15.82,14a71.06,71.06,0,0,0-6.54,7.73,27.4,27.4,0,0,0-2.91-3.39c-.76-.73-2.1-1.85-3.42-1.85a2.16,2.16,0,0,0-1,.26,3.13,3.13,0,0,0-1,1A7.72,7.72,0,0,0,0,19.47,7.81,7.81,0,0,1,.94,19a1.86,1.86,0,0,1,.79-.25h0a1.46,1.46,0,0,1,.63.2A28.88,28.88,0,0,1,6.49,24c1.21,1.75,2.48,4.05,4,6.4A107.29,107.29,0,0,1,19.45,16,109.1,109.1,0,0,1,32,1.63Z" fill="#999"/>
    </g>
  </g>
</svg>
